<?xml version="1.0" encoding="utf-8"?>
<!-- Generator: Adobe Illustrator 19.1.0, SVG Export Plug-In . SVG Version: 6.00 Build 0)  -->
<svg version="1.1" id="Calque_1" xmlns="http://www.w3.org/2000/svg" xmlns:xlink="http://www.w3.org/1999/xlink" x="0px" y="0px"
	 viewBox="0 0 40 40" style="enable-background:new 0 0 40 40;" xml:space="preserve">
<style type="text/css">
	.st0{fill:#FFFFFF;}
</style>
<g>
	<path class="st0" d="M20,39.5C9.2,39.5,0.5,30.8,0.5,20C0.5,9.2,9.2,0.5,20,0.5c10.8,0,19.5,8.7,19.5,19.5
		C39.5,30.8,30.8,39.5,20,39.5z"/>
	<path d="M20,1c10.5,0,19,8.5,19,19s-8.5,19-19,19S1,30.5,1,20S9.5,1,20,1 M20,0C9,0,0,9,0,20s9,20,20,20s20-9,20-20S31,0,20,0L20,0
		z"/>
</g>
<circle cx="20" cy="20" r="3.5"/>
<circle cx="10" cy="20" r="3.5"/>
<circle cx="30" cy="20" r="3.5"/>
</svg>
